# xmcd CD database file
#
# Track frame offsets:
#	150
#	17947
#	34605
#	50425
#	65700
#	81835
#	96347
#	113825
#	129980
#	145387
#
# Disc length: 2229 seconds
#
# Revision: 0
# Processed by: cddbd v1.5PL3 Copyright (c) Steve Scherf et al.
# Submitted via: CDex 1.51
#
DISCID=8a08b30a
DTITLE=河合奈保子 - Twilight Dream
DYEAR=1993
DGENRE=Pop
TTITLE0=愛してます
TTITLE1=Hello Goodbye
TTITLE2=Mr.パイロット
TTITLE3=そしてシークレット
TTITLE4=キャンディ・ラブ
TTITLE5=ハートはもう春
TTITLE6=イチゴタルトはお好き？
TTITLE7=17才
TTITLE8=ふたりのWonderland
TTITLE9=Twilight Dream
EXTD=YEAR: 1993
EXTT0=
EXTT1=
EXTT2=
EXTT3=
EXTT4=
EXTT5=
EXTT6=
EXTT7=
EXTT8=
EXTT9=
PLAYORDER=
